<svg width="420" height="406" viewBox="0 0 420 406" fill="none" xmlns="http://www.w3.org/2000/svg">
<ellipse cx="210" cy="203" rx="210" ry="203" fill="#FFF4C6"/>
<path d="M267.701 318.741C267.888 296.831 277.273 265.184 256.044 249.748C240.831 238.726 218.667 238.887 201.182 233.51C180.247 227.063 157.361 213.526 152.094 190.573C145.624 162.323 172.306 141.109 170.301 113.448C168.617 90.2539 147.442 81.2385 128.753 72.5977C122.497 69.7353 116.161 66.8193 110.038 63.6626C67.0195 94.9354 39 145.63 39 202.932C39 297.955 116 375 210.94 375C236.206 375 260.162 369.516 281.738 359.725C272.941 348.302 267.487 335.006 267.674 318.714L267.701 318.741Z" fill="#A7B5FE"/>
<path d="M173.614 65.7627C190.696 78.9603 199.344 98.1208 198.568 119.56C198.086 133.712 193.347 145.823 187.349 158.464C182.208 169.277 174.845 180.646 184.056 191.193C196.667 205.69 219.746 207.412 237.31 211.387C255.811 215.601 273.777 222.412 285.263 238.207C300.578 259.275 298.249 284.849 296.482 309.31C295.438 323.488 297.151 333.028 306.737 343.337C352.173 312.649 382.026 260.998 382.026 202.43C382.026 108.297 304.943 32 209.84 32C184.698 32 160.816 37.3533 139.289 46.9467C151.257 52.3 163.172 57.6533 173.667 65.7362L173.614 65.7627Z" fill="#543787"/>
</svg>
