<svg width="95" height="95" viewBox="0 0 95 95" fill="none" xmlns="http://www.w3.org/2000/svg">
<path d="M47.6336 94.0421C46.4905 94.0421 45.3499 94.0004 44.2104 93.9171C43.071 93.8327 41.9363 93.7077 40.8064 93.5412C39.6766 93.3734 38.5538 93.1652 37.4395 92.9165C36.3251 92.6666 35.2203 92.3763 34.1274 92.0467C33.0346 91.7159 31.9549 91.3459 30.8883 90.9366C29.8229 90.5261 28.773 90.0787 27.7411 89.5921C26.7079 89.1054 25.6951 88.5819 24.7002 88.0203C23.7064 87.4599 22.7342 86.8626 21.7847 86.2308C20.8351 85.5978 19.9095 84.9314 19.0089 84.2318C18.1083 83.531 17.2352 82.7992 16.3884 82.0354C15.5416 81.2703 14.7247 80.4767 13.9376 79.6521C13.1493 78.8275 12.3932 77.9756 11.6682 77.0963C10.9432 76.2158 10.2529 75.3116 9.59477 74.3811C8.93666 73.4506 8.31439 72.4964 7.72675 71.5207C7.13911 70.5439 6.58969 69.548 6.07611 68.5318C5.56133 67.5145 5.08596 66.4805 4.64882 65.4299C4.21167 64.3781 3.81394 63.312 3.45563 62.2316C3.09731 61.1512 2.77961 60.0578 2.50251 58.9548C2.22422 57.8506 1.98773 56.7381 1.79304 55.6161C1.59716 54.4952 1.44428 53.3685 1.33201 52.2357C1.21974 51.103 1.14927 49.9679 1.1218 48.8304C1.09313 47.6917 1.10747 46.5554 1.1636 45.4179C1.21974 44.2816 1.31768 43.1489 1.45742 42.0186C1.59716 40.8894 1.77871 39.7662 2.00206 38.6501C2.22422 37.534 2.48818 36.4275 2.79274 35.3304C3.09731 34.2334 3.44249 33.1495 3.82708 32.0774C4.21167 31.0065 4.63568 29.95 5.0991 28.91C5.56133 27.8689 6.06297 26.8469 6.60164 25.8438C7.13911 24.8396 7.71481 23.8568 8.32514 22.8954C8.93666 21.934 9.58282 20.9964 10.2636 20.0826C10.9432 19.1676 11.6575 18.28 12.4028 17.4185C13.1493 16.5571 13.9268 15.723 14.7342 14.9187C15.2729 14.3821 15.8235 13.8597 16.3884 13.3505C16.9522 12.84 17.5291 12.345 18.1179 11.8643C18.7055 11.3825 19.3063 10.916 19.9178 10.4639C20.5294 10.013 21.1516 9.57628 21.7847 9.15388C22.4177 8.73268 23.0615 8.32694 23.7136 7.93786C24.3669 7.54759 25.0298 7.17398 25.7011 6.81584C26.3723 6.45889 27.0519 6.1174 27.7411 5.79376C28.429 5.46894 29.1254 5.16196 29.8288 4.87164C30.5323 4.58131 31.2418 4.30765 31.9584 4.05302C32.6763 3.79721 33.3989 3.55924 34.1274 3.33912C34.856 3.119 35.5894 2.91672 36.3287 2.7323C37.0668 2.54787 37.8097 2.38129 38.5562 2.23375C39.3027 2.08621 40.0528 1.95652 40.8064 1.84467C41.5589 1.73402 42.315 1.64121 43.0722 1.56625C43.8306 1.49248 44.5891 1.43656 45.3499 1.39967C46.1107 1.3616 46.8715 1.34375 47.6336 1.34375C48.3944 1.34375 49.1552 1.3616 49.916 1.39967C50.6768 1.43656 51.4353 1.49248 52.1937 1.56625C52.951 1.64121 53.707 1.73402 54.4595 1.84467C55.2131 1.95652 55.9632 2.08621 56.7097 2.23375C57.4562 2.38129 58.1991 2.54787 58.9384 2.7323C59.6765 2.91672 60.4099 3.119 61.1385 3.33912C61.867 3.55924 62.5896 3.79721 63.3075 4.05302C64.0241 4.30765 64.7348 4.58131 65.4383 4.87164C66.1417 5.16196 66.8369 5.46894 67.5248 5.79376C68.214 6.1174 68.8936 6.45889 69.5649 6.81584C70.2373 7.17398 70.899 7.54759 71.5523 7.93786C72.2056 8.32694 72.8482 8.73268 73.4812 9.15388C74.1143 9.57628 74.7365 10.013 75.3481 10.4639C75.9596 10.916 76.5604 11.3825 77.1492 11.8643C77.7368 12.345 78.3137 12.84 78.8775 13.3505C79.4424 13.8597 79.993 14.3821 80.5317 14.9187C81.0704 15.4553 81.5947 16.0038 82.1059 16.5666C82.6183 17.1282 83.1152 17.7029 83.5977 18.2883C84.0814 18.8749 84.5496 19.4734 85.0035 20.0826C85.4561 20.6918 85.8945 21.3117 86.3185 21.9423C86.7413 22.5729 87.1486 23.2131 87.5392 23.8639C87.9309 24.5148 88.306 25.1739 88.6655 25.8438C89.0238 26.5125 89.3666 27.1895 89.6914 27.8761C90.0175 28.5614 90.3257 29.2539 90.6171 29.9547C90.9085 30.6555 91.1832 31.3635 91.4388 32.0774C91.6956 32.7913 91.9345 33.5124 92.1555 34.2382C92.3764 34.964 92.5795 35.6945 92.7646 36.4299C92.9497 37.1664 93.1169 37.9065 93.265 38.6501C93.4131 39.3938 93.5433 40.141 93.6556 40.8918C93.7667 41.6414 93.8598 42.3945 93.9351 43.1489C94.0091 43.9045 94.0653 44.66 94.1023 45.4179C94.1405 46.1759 94.1584 46.9338 94.1584 47.6917C94.1584 48.4508 94.1405 49.2088 94.1023 49.9667C94.0653 50.7246 94.0091 51.4802 93.9351 52.2357C93.8598 52.9901 93.7667 53.7433 93.6556 54.4929C93.5433 55.2437 93.4131 55.9909 93.265 56.7345C93.1169 57.4782 92.9497 58.2183 92.7646 58.9536C92.5795 59.6901 92.3764 60.4207 92.1555 61.1465C91.9345 61.8723 91.6956 62.5921 91.4388 63.3072C91.1832 64.0211 90.9085 64.7279 90.6171 65.4287C90.3257 66.1295 90.0175 66.8232 89.6914 67.5086C89.3666 68.1951 89.0238 68.8721 88.6655 69.5408C88.306 70.2095 87.9309 70.8699 87.5392 71.5207C87.1486 72.1704 86.7413 72.8117 86.3185 73.4423C85.8945 74.0729 85.4561 74.6928 85.0035 75.302C84.5496 75.9112 84.0814 76.5097 83.5977 77.0951C83.1152 77.6817 82.6183 78.2564 82.1059 78.818C81.5947 79.3808 81.0704 79.9293 80.5317 80.466C79.4568 81.5428 78.3316 82.5637 77.1552 83.5298C75.9787 84.496 74.7568 85.4014 73.4908 86.2462C72.2247 87.0922 70.9193 87.8739 69.5756 88.5902C68.2319 89.3065 66.856 89.9562 65.4478 90.5368C64.0396 91.1186 62.6052 91.6291 61.1468 92.0693C59.6873 92.5084 58.2098 92.876 56.7145 93.1699C55.2191 93.4638 53.713 93.6839 52.1961 93.8303C50.678 93.9754 49.1576 94.0468 47.6336 94.0421ZM47.6336 1.93748C46.5049 1.93748 45.3786 1.97913 44.2546 2.06123C43.1295 2.14451 42.0092 2.26826 40.8936 2.43246C39.7781 2.59785 38.6709 2.80369 37.5697 3.0488C36.4696 3.29509 35.3792 3.58185 34.3006 3.90786C33.2209 4.23388 32.1555 4.59916 31.1033 5.00371C30.051 5.40826 29.0155 5.84969 27.9955 6.33038C26.9767 6.81108 25.9758 7.32747 24.9952 7.88194C24.0134 8.43522 23.0543 9.02419 22.1167 9.64886C21.1779 10.2723 20.2654 10.9303 19.3756 11.6216C18.487 12.3129 17.6246 13.0363 16.7885 13.7907C15.9537 14.5451 15.1463 15.3292 14.3687 16.143C13.5912 16.9557 12.8447 17.7969 12.1293 18.6655C11.4138 19.5341 10.7318 20.4277 10.0821 21.3462C9.43233 22.2648 8.81842 23.2059 8.23795 24.1697C7.65867 25.1335 7.11522 26.1175 6.60761 27.1205C6.10119 28.1236 5.6318 29.1444 5.20062 30.1832C4.76826 31.2207 4.3753 32.2725 4.02177 33.3398C3.66823 34.4071 3.35411 35.4851 3.08059 36.575C2.80588 37.6649 2.57298 38.7631 2.38068 39.8697C2.18719 40.9774 2.0355 42.0899 1.92562 43.2072C1.81454 44.3257 1.74527 45.4465 1.7178 46.5697C1.69033 47.6929 1.70346 48.8149 1.7596 49.937C1.81454 51.059 1.91129 52.1774 2.04984 53.2935C2.18719 54.4084 2.36635 55.5161 2.58612 56.6179C2.80588 57.7209 3.06626 58.8132 3.36724 59.8959C3.66823 60.9787 4.00863 62.0484 4.38844 63.1061C4.76826 64.1639 5.18749 65.2062 5.64374 66.2342C6.10119 67.2611 6.59567 68.2701 7.12717 69.2612C7.65867 70.2512 8.226 71.2221 8.82917 72.1704C9.43353 73.1199 10.0701 74.0456 10.7426 74.9487C11.4138 75.8506 12.1185 76.7275 12.8554 77.5782C13.5912 78.429 14.3592 79.2511 15.1558 80.0459C15.6873 80.5754 16.232 81.0918 16.7885 81.5939C17.3463 82.0972 17.9149 82.5863 18.4953 83.061C19.077 83.5358 19.6694 83.9962 20.2726 84.4424C20.8769 84.8886 21.4908 85.3193 22.1167 85.7358C22.7414 86.1522 23.3756 86.552 24.0206 86.9375C24.6655 87.3218 25.3188 87.6919 25.9817 88.0441C26.6446 88.3975 27.3159 88.7342 27.9955 89.0543C28.6751 89.3743 29.3618 89.6777 30.057 89.9645C30.7509 90.2512 31.452 90.5201 32.1603 90.7724C32.8674 91.0246 33.5816 91.2602 34.3006 91.4768C35.0196 91.6945 35.7446 91.8944 36.4732 92.0765C37.203 92.2585 37.9351 92.4215 38.6733 92.5679C39.4102 92.7142 40.1507 92.8427 40.8936 92.9522C41.6377 93.0616 42.383 93.1533 43.1319 93.227C43.8796 93.3008 44.6285 93.3555 45.3797 93.3924C46.131 93.4293 46.8811 93.4472 47.6336 93.4472C48.3848 93.4472 49.1361 93.4293 49.8874 93.3924C50.6374 93.3555 51.3875 93.3008 52.1352 93.227C52.8829 93.1545 53.6294 93.0628 54.3723 92.9522C55.1164 92.8427 55.8569 92.7142 56.5938 92.5691C57.3308 92.4227 58.0641 92.2585 58.7939 92.0765C59.5225 91.8944 60.2463 91.6945 60.9665 91.478C61.6855 91.2602 62.3985 91.0258 63.1068 90.7736C63.8139 90.5213 64.515 90.2512 65.2101 89.9645C65.9041 89.6777 66.592 89.3755 67.2704 89.0543C67.95 88.7342 68.6213 88.3987 69.2842 88.0453C69.9471 87.6919 70.6016 87.323 71.2465 86.9387C71.8915 86.5532 72.5257 86.1522 73.1504 85.737C73.7763 85.3205 74.3902 84.8898 74.9945 84.4436C75.5977 83.9974 76.1901 83.537 76.7718 83.0622C77.3522 82.5875 77.9208 82.0984 78.4785 81.5951C79.0351 81.0918 79.5798 80.5766 80.1113 80.0471C80.6428 79.5177 81.1611 78.9751 81.6652 78.4206C82.1704 77.865 82.6613 77.2986 83.1378 76.7191C83.6144 76.1409 84.0766 75.5507 84.5245 74.9487C84.9724 74.3478 85.406 73.7362 85.8228 73.1127C86.2409 72.4904 86.6422 71.8586 87.0292 71.2161C87.4161 70.5736 87.7864 69.9216 88.1399 69.2612C88.4947 68.6008 88.8327 67.9322 89.154 67.2563C89.4753 66.5793 89.7798 65.894 90.0677 65.2027C90.3555 64.5114 90.6254 63.8129 90.8787 63.1073C91.1319 62.4029 91.3684 61.6914 91.5857 60.9751C91.8043 60.2589 92.005 59.5366 92.1877 58.8108C92.3704 58.0838 92.5353 57.3533 92.681 56.6191C92.8279 55.885 92.9569 55.1473 93.0668 54.4072C93.1767 53.6659 93.2686 52.9235 93.3427 52.1774C93.4167 51.4326 93.4717 50.6866 93.5087 49.9381C93.5457 49.1897 93.5636 48.4413 93.5636 47.6929C93.5636 46.9445 93.5457 46.1961 93.5087 45.4477C93.4717 44.7005 93.4167 43.9532 93.3427 43.2084C93.2698 42.4624 93.1778 41.7199 93.0668 40.9798C92.9569 40.2385 92.8279 39.5008 92.6822 38.7667C92.5353 38.0326 92.3704 37.302 92.1877 36.575C92.005 35.8492 91.8043 35.127 91.5869 34.4107C91.3684 33.6944 91.1331 32.9829 90.8799 32.2785C90.6266 31.5729 90.3555 30.8745 90.0677 30.1832C89.781 29.4919 89.4764 28.8065 89.1552 28.1295C88.8327 27.4525 88.4959 26.7838 88.1411 26.1234C87.7864 25.4631 87.4161 24.8122 87.0303 24.1697C86.6434 23.5272 86.2421 22.8954 85.824 22.2731C85.406 21.6496 84.9736 21.038 84.5257 20.436C84.0778 19.8351 83.6156 19.2449 83.139 18.6655C82.6625 18.0872 82.1716 17.5197 81.6664 16.9652C81.1611 16.4107 80.644 15.8682 80.1125 15.3387C79.0507 14.2762 77.9399 13.2684 76.7777 12.3141C75.6168 11.361 74.4105 10.4675 73.1611 9.6322C71.9106 8.79812 70.6219 8.0271 69.2949 7.31914C67.9692 6.61238 66.6099 5.97105 65.2197 5.39755C63.8294 4.82404 62.4141 4.32074 60.9736 3.88645C59.5332 3.45215 58.0749 3.08925 56.5986 2.79893C55.1223 2.50861 53.6353 2.29087 52.1376 2.14689C50.6398 2.00292 49.1385 1.93391 47.6336 1.93748ZM92.6953 58.4765C92.7037 58.4384 92.7037 58.3991 92.6965 58.3599C92.6893 58.3218 92.6738 58.2861 92.6523 58.2528C92.6308 58.2195 92.6033 58.1921 92.5699 58.1707C92.5365 58.1481 92.5006 58.1338 92.4624 58.1267C89.5899 57.5412 86.807 56.6715 84.1149 55.5149C82.9742 55.0259 81.8204 54.4738 80.7061 53.9396C77.0692 52.2 73.3081 50.3998 69.234 50.332C66.5872 50.2903 63.9942 50.9959 61.4908 51.6753C59.5631 52.2012 57.5684 52.7319 55.5714 52.9425C48.5556 53.6171 41.9662 50.1428 35.5906 46.7815L35.489 46.7268C31.6133 44.685 28.0874 42.9478 24.1758 42.4183C16.9665 41.4427 10.1717 44.7707 3.59537 47.9904C2.81663 48.3699 2.04028 48.7507 1.26274 49.1195C1.20063 49.1624 1.16002 49.2195 1.14091 49.2909C1.12299 49.3635 1.13016 49.4325 1.1636 49.4991C1.19705 49.5657 1.2484 49.6133 1.31768 49.6419C1.38695 49.6704 1.45742 49.6728 1.52789 49.6478C2.30185 49.2766 3.0794 48.8958 3.85933 48.5139C10.3556 45.3346 17.0728 42.0471 24.097 42.999C27.9131 43.5166 31.3863 45.2276 35.2107 47.2443L35.3147 47.2967C41.7667 50.6996 48.441 54.2192 55.63 53.5255C57.6783 53.3292 59.6968 52.7807 61.6497 52.2476C64.1149 51.5789 66.6661 50.8876 69.2268 50.9281C73.1707 50.9912 76.8697 52.7616 80.4493 54.4738C81.5708 55.0128 82.7282 55.5661 83.8796 56.0623C86.6111 57.2319 89.4323 58.1148 92.3454 58.7085H92.4051C92.4744 58.7097 92.5365 58.6871 92.5914 58.6442C92.6452 58.6002 92.6798 58.5443 92.6953 58.4765ZM66.4833 57.7602C72.564 54.8962 78.85 51.9335 85.523 51.9335H85.5863C88.5042 51.9335 91.3421 52.5332 93.4908 53.0484C93.5708 53.0674 93.6449 53.0555 93.7153 53.0139C93.7858 52.9711 93.83 52.9092 93.8503 52.8295C93.8694 52.7497 93.8575 52.676 93.8145 52.6058C93.7715 52.5356 93.7105 52.4916 93.6305 52.4725C91.4508 51.9478 88.5675 51.3481 85.5887 51.3398H85.523C78.7174 51.3398 72.3776 54.3311 66.2289 57.2248C60.1483 60.0887 53.8623 63.0514 47.1904 63.0514H47.1116C39.6503 63.024 32.773 59.3403 26.1215 55.7791L26.0522 55.741C23.4413 54.3453 20.4816 52.7593 17.2591 52.1513C12.9283 51.335 7.98951 52.2464 2.1633 54.9391L1.79065 55.1104C1.71899 55.1461 1.67002 55.2032 1.64494 55.2794C1.61866 55.3543 1.62225 55.4293 1.65688 55.5019C1.69152 55.5744 1.74646 55.6244 1.82171 55.653C1.89696 55.6815 1.97101 55.6803 2.04506 55.6482C2.16808 55.5899 2.2911 55.5328 2.41412 55.4781C8.12806 52.839 12.9474 51.9442 17.1493 52.7319C20.2833 53.3233 23.2 54.8843 25.7715 56.261L25.8396 56.2967C32.5568 59.8876 39.5022 63.613 47.1116 63.6404H47.1988C53.9996 63.6511 60.3478 60.6539 66.4881 57.7602H66.4833ZM78.9921 67.5942C80.7395 67.3622 82.4678 67.0326 84.1782 66.6079C85.9052 66.1759 87.6502 65.844 89.4155 65.6131C89.6867 65.5822 89.965 65.5608 90.2397 65.5453C90.3221 65.5418 90.3913 65.5084 90.4463 65.4478C90.5012 65.3871 90.5263 65.3157 90.5215 65.2336C90.5203 65.1943 90.5108 65.1562 90.4941 65.1206C90.4773 65.0849 90.4546 65.0539 90.4248 65.0266C90.3949 65.0004 90.3615 64.9813 90.3245 64.9683C90.2862 64.9552 90.248 64.9504 90.2086 64.9528C89.922 64.9671 89.6317 64.9909 89.3606 65.0218C87.5738 65.2562 85.8073 65.5917 84.0599 66.0296C82.3722 66.452 80.6655 66.7804 78.942 67.0136C69.8419 68.0702 62.4571 64.34 54.6422 60.3945C47.7267 56.9035 40.5938 53.3018 32.1686 53.2876H32.1388C27.3278 53.2876 21.203 55.5744 15.7984 57.5912C13.9101 58.2992 12.1245 58.9643 10.5347 59.4795C8.05162 60.2862 5.74885 60.9585 3.49146 61.5582C3.45085 61.5665 3.41263 61.582 3.37919 61.6046C3.34455 61.6284 3.31708 61.6569 3.29439 61.6926C3.27289 61.7271 3.25855 61.7652 3.25258 61.8056C3.24661 61.8461 3.249 61.8866 3.25855 61.927C3.2693 61.9663 3.28722 62.0032 3.3135 62.0353C3.33858 62.0674 3.36963 62.0936 3.40666 62.1126C3.44249 62.1329 3.4819 62.1436 3.52251 62.1471C3.56432 62.1507 3.60493 62.1459 3.64315 62.1329C5.91248 61.5367 8.22481 60.855 10.7187 60.0459C12.3215 59.5259 14.1107 58.8572 16.0062 58.1445C21.3642 56.1432 27.4365 53.8765 32.1388 53.8765H32.1663C40.4493 53.8932 47.5189 57.4675 54.3544 60.9121C61.0477 64.2912 67.9405 67.7703 75.8796 67.7703C76.9211 67.7715 77.959 67.7132 78.9921 67.5942ZM68.5257 45.0943C68.2104 45.0943 67.8963 45.0788 67.5834 45.0479C67.2692 45.017 66.9587 44.9717 66.6494 44.9099C66.3412 44.8492 66.0354 44.773 65.7345 44.6814C65.4323 44.591 65.1373 44.4851 64.8458 44.3649C64.5544 44.2447 64.2701 44.1115 63.993 43.9628C63.7148 43.8152 63.4448 43.6546 63.1833 43.4797C62.9217 43.306 62.6685 43.1192 62.426 42.9205C62.1824 42.7206 61.9495 42.5111 61.7261 42.2886C61.5039 42.0673 61.2925 41.8353 61.0931 41.5926C60.8924 41.3499 60.7061 41.0988 60.5305 40.837C60.3561 40.5765 60.1937 40.3076 60.0456 40.0315C59.8975 39.7543 59.7625 39.4711 59.6419 39.182C59.5213 38.8916 59.4162 38.5966 59.3242 38.2967C59.2334 37.9957 59.157 37.6923 59.0949 37.3841C59.034 37.0771 58.9874 36.7666 58.9563 36.4548C58.9253 36.1431 58.9097 35.8302 58.9097 35.5161C58.9097 35.2019 58.9253 34.889 58.9563 34.5773C58.9874 34.2643 59.034 33.955 59.0949 33.6468C59.157 33.3398 59.2334 33.0352 59.3242 32.7354C59.4162 32.4356 59.5213 32.1405 59.6419 31.8501C59.7625 31.561 59.8975 31.2778 60.0456 31.0006C60.1937 30.7246 60.3561 30.4557 60.5305 30.1939C60.7061 29.9333 60.8924 29.6823 61.0931 29.4395C61.2925 29.1968 61.5039 28.9648 61.7261 28.7435C61.9495 28.521 62.1824 28.3104 62.426 28.1117C62.6685 27.913 62.9217 27.7262 63.1833 27.5512C63.4448 27.3775 63.7148 27.2169 63.993 27.0682C64.2701 26.9206 64.5544 26.7862 64.8458 26.666C65.1373 26.547 65.4323 26.4411 65.7345 26.3495C66.0354 26.2591 66.3412 26.1829 66.6494 26.1211C66.9587 26.0604 67.2692 26.014 67.5834 25.983C67.8963 25.9533 68.2104 25.9378 68.5257 25.9378C68.8399 25.9378 69.154 25.9533 69.4681 25.983C69.781 26.014 70.0928 26.0604 70.4009 26.1211C70.7103 26.1829 71.0148 26.2591 71.3158 26.3495C71.618 26.4411 71.9142 26.547 72.2044 26.666C72.4959 26.7862 72.7801 26.9206 73.0572 27.0682C73.3355 27.2169 73.6055 27.3775 73.867 27.5512C74.1286 27.7262 74.3818 27.913 74.6255 28.1117C74.8679 28.3104 75.102 28.521 75.3242 28.7435C75.5463 28.9648 75.7577 29.1968 75.9572 29.4395C76.1579 29.6823 76.3454 29.9333 76.5198 30.1939C76.6953 30.4557 76.8566 30.7246 77.0047 31.0006C77.1528 31.2778 77.2877 31.561 77.4084 31.8501C77.529 32.1405 77.6353 32.4356 77.7261 32.7354C77.8181 33.0352 77.8945 33.3398 77.9554 33.6468C78.0175 33.955 78.0629 34.2643 78.094 34.5773C78.125 34.889 78.1405 35.2019 78.1405 35.5161C78.1405 35.829 78.1238 36.1419 78.0928 36.4548C78.0617 36.7666 78.0163 37.0759 77.9542 37.3841C77.8921 37.6911 77.8157 37.9957 77.7249 38.2955C77.6329 38.5954 77.5266 38.8905 77.406 39.1796C77.2854 39.4699 77.1504 39.7531 77.0023 40.0291C76.8542 40.3064 76.6917 40.5741 76.5174 40.8358C76.3418 41.0964 76.1555 41.3475 75.9548 41.5902C75.7554 41.8329 75.5439 42.065 75.3218 42.2863C75.0984 42.5076 74.8655 42.7182 74.6231 42.9181C74.3794 43.1168 74.1262 43.3036 73.8646 43.4773C73.6031 43.6522 73.3331 43.8128 73.056 43.9604C72.7789 44.1091 72.4947 44.2424 72.2032 44.3625C71.913 44.4827 71.6168 44.5886 71.3158 44.6802C71.0136 44.7707 70.7091 44.848 70.4009 44.9087C70.0916 44.9706 69.781 45.017 69.4669 45.0479C69.154 45.0788 68.8399 45.0943 68.5257 45.0943ZM68.5257 26.5327C68.2295 26.5327 67.9357 26.547 67.6407 26.5768C67.3469 26.6053 67.0554 26.6482 66.7652 26.7053C66.4762 26.7636 66.1895 26.835 65.9065 26.9194C65.6246 27.0051 65.3463 27.1039 65.074 27.2169C64.8004 27.3299 64.5341 27.4549 64.2737 27.5941C64.0133 27.7333 63.7601 27.8844 63.5141 28.0474C63.2681 28.2104 63.0316 28.3865 62.8034 28.5733C62.5753 28.7589 62.3567 28.9564 62.1477 29.1647C61.9387 29.3729 61.7404 29.5906 61.5529 29.8179C61.3654 30.0463 61.1898 30.2819 61.0262 30.527C60.8614 30.771 60.7097 31.0232 60.5711 31.2826C60.4314 31.542 60.306 31.8085 60.1925 32.0798C60.079 32.3523 59.9799 32.6283 59.8939 32.9103C59.8079 33.1923 59.7363 33.4767 59.6789 33.7658C59.6216 34.0549 59.5786 34.3452 59.5499 34.638C59.5201 34.9307 59.5057 35.2245 59.5057 35.5184C59.5057 35.8135 59.5201 36.1062 59.5499 36.3989C59.5786 36.6928 59.6216 36.9831 59.6789 37.2711C59.7375 37.5602 59.8091 37.8458 59.8951 38.1266C59.9799 38.4086 60.0802 38.6858 60.1925 38.9571C60.306 39.2296 60.4326 39.4949 60.5711 39.7543C60.7109 40.0137 60.8626 40.2659 61.0262 40.511C61.191 40.7549 61.3666 40.9917 61.5541 41.219C61.7416 41.4462 61.9399 41.664 62.1489 41.8722C62.3579 42.0804 62.5765 42.2779 62.8046 42.4636C63.0328 42.6504 63.2692 42.8265 63.5153 42.9895C63.7613 43.1525 64.0145 43.3036 64.2749 43.4428C64.5353 43.5808 64.8016 43.7069 65.0752 43.82C65.3475 43.9318 65.6258 44.0306 65.9088 44.1162C66.1907 44.2019 66.4774 44.2733 66.7664 44.3304C67.0566 44.3875 67.3481 44.4316 67.6431 44.4601C67.9369 44.4887 68.2307 44.5029 68.5269 44.5029C68.8219 44.5029 69.117 44.4887 69.4108 44.4601C69.7046 44.4304 69.996 44.3875 70.2863 44.3304C70.5765 44.2721 70.862 44.2007 71.145 44.1151C71.4281 44.0306 71.7052 43.9306 71.9787 43.8188C72.251 43.7057 72.5174 43.5796 72.7789 43.4416C73.0393 43.3024 73.2913 43.1513 73.5374 42.9883C73.7834 42.8241 74.0199 42.6492 74.248 42.4624C74.4762 42.2756 74.6947 42.078 74.9038 41.8698C75.1128 41.6616 75.311 41.4439 75.4986 41.2166C75.6861 40.9893 75.8617 40.7526 76.0253 40.5086C76.1901 40.2635 76.3418 40.0113 76.4803 39.7519C76.6201 39.4925 76.7455 39.226 76.859 38.9547C76.9712 38.6822 77.0716 38.4062 77.1564 38.1242C77.2424 37.8422 77.314 37.5578 77.3714 37.2687C77.4287 36.9808 77.4729 36.6892 77.5015 36.3965C77.5302 36.1038 77.5445 35.8099 77.5445 35.5161C77.5445 35.2222 77.529 34.9283 77.5003 34.6356C77.4705 34.3429 77.4275 34.0525 77.369 33.7634C77.3116 33.4755 77.24 33.1911 77.154 32.9091C77.068 32.6271 76.9677 32.3511 76.8554 32.0798C76.7419 31.8073 76.6153 31.542 76.4768 31.2826C76.337 31.0232 76.1853 30.7721 76.0217 30.527C75.8569 30.2831 75.6813 30.0463 75.4938 29.8191C75.3063 29.5918 75.108 29.3741 74.9002 29.1659C74.6912 28.9588 74.4726 28.7613 74.2445 28.5745C74.0163 28.3877 73.7786 28.2128 73.5338 28.0498C73.2878 27.8856 73.0345 27.7345 72.7742 27.5965C72.5138 27.4572 72.2474 27.3323 71.9751 27.2193C71.7028 27.1062 71.4245 27.0075 71.1426 26.9218C70.8596 26.8361 70.5741 26.7648 70.2839 26.7076C69.9948 26.6493 69.7022 26.6065 69.4084 26.5768C69.1146 26.5482 68.8208 26.5339 68.5257 26.5327ZM57.1313 70.8032C67.1773 70.4332 77.566 70.0513 87.7171 70.814C87.7983 70.8187 87.87 70.7949 87.9321 70.7414C87.993 70.689 88.0277 70.6224 88.0348 70.5415C88.042 70.4594 88.0181 70.3868 87.9656 70.3249C87.9118 70.2631 87.8437 70.2286 87.7613 70.2226C77.5851 69.4552 67.1725 69.8395 57.1086 70.2095C49.0095 70.507 40.6345 70.8151 32.4183 70.5236C29.0644 70.4035 25.6533 70.1821 22.3544 69.9668C17.338 69.6408 12.1472 69.3052 7.05312 69.3183C7.01131 69.3148 6.9707 69.3195 6.93129 69.3326C6.89187 69.3469 6.85604 69.3671 6.82499 69.3957C6.79513 69.4242 6.77124 69.4575 6.75452 69.4956C6.7378 69.5337 6.72824 69.5729 6.72824 69.6146C6.72824 69.6562 6.7378 69.6967 6.75452 69.7348C6.77124 69.7728 6.79513 69.8062 6.82499 69.8347C6.85604 69.8621 6.89187 69.8835 6.93129 69.8966C6.9707 69.9097 7.01131 69.9156 7.05312 69.9121C12.1269 69.899 17.3105 70.2321 22.3186 70.5605C25.621 70.7711 29.037 70.9972 32.3992 71.1174C34.7449 71.1995 37.0979 71.2387 39.4604 71.2363C45.3905 71.2363 51.3326 71.0162 57.1361 70.8032H57.1313ZM93.5135 40.0779C93.529 39.997 93.5123 39.922 93.4645 39.8554C93.4179 39.7876 93.3534 39.7459 93.2722 39.7317L80.1125 37.3508C80.0313 37.3365 79.9572 37.3532 79.8891 37.3996C79.8222 37.446 79.7816 37.509 79.7661 37.59C79.7518 37.6709 79.7673 37.7446 79.8151 37.8113C79.8616 37.8791 79.9249 37.9195 80.0062 37.9338L93.1659 40.3171C93.1838 40.3183 93.2029 40.3183 93.2208 40.3171C93.2925 40.3171 93.357 40.2957 93.4131 40.2504C93.4681 40.2052 93.5039 40.1481 93.5182 40.0779H93.5135ZM93.8682 46.5875C93.9016 46.5126 93.9028 46.4364 93.873 46.3603C93.8431 46.2841 93.7906 46.2294 93.7153 46.1973L79.4042 39.9328C79.329 39.9042 79.2549 39.9054 79.182 39.9363C79.108 39.9673 79.0554 40.0184 79.0232 40.091C78.9921 40.1636 78.9897 40.2374 79.016 40.3123C79.0435 40.3873 79.0925 40.442 79.1641 40.4777L93.4753 46.7398C93.5505 46.7732 93.6269 46.7744 93.7034 46.7446C93.7798 46.7149 93.8348 46.6625 93.8682 46.5875ZM82.3197 52.1049C82.3507 52.0787 82.3758 52.0489 82.3937 52.0132C82.4129 51.9787 82.4248 51.9407 82.4284 51.9014C82.432 51.8609 82.4272 51.8229 82.4152 51.7848C82.4021 51.7467 82.383 51.7122 82.3567 51.6825L76.2486 44.3471C76.1961 44.2852 76.1292 44.2519 76.048 44.2447C75.9668 44.2376 75.8951 44.2602 75.8318 44.3126C75.7697 44.3637 75.7339 44.4304 75.7255 44.5113C75.7171 44.591 75.7386 44.6636 75.7888 44.7266L81.904 52.0668C81.9638 52.137 82.0402 52.1727 82.1322 52.1739C82.205 52.1739 82.2683 52.1513 82.3233 52.1049H82.3197ZM90.6852 52.1548C90.7102 52.1239 90.7282 52.0882 90.7389 52.0501C90.7497 52.0109 90.7521 51.9716 90.7473 51.9323C90.7413 51.8919 90.7282 51.855 90.7079 51.8205C90.6876 51.786 90.6613 51.7562 90.6278 51.7324L78.0665 42.2934C78.0008 42.2446 77.9267 42.2256 77.8455 42.2363C77.7643 42.2482 77.6986 42.2863 77.6496 42.3517C77.5995 42.4171 77.5804 42.4897 77.5923 42.5718C77.6043 42.6527 77.6425 42.717 77.7082 42.767L90.2635 52.2119C90.3173 52.2524 90.377 52.2726 90.4439 52.2738C90.5466 52.2762 90.6278 52.2369 90.6899 52.1548H90.6852ZM77.8539 52.8497C77.9267 52.8104 77.9745 52.7521 77.9984 52.6736C78.0223 52.5939 78.0139 52.5189 77.9745 52.4463L74.3328 45.6987C74.291 45.6321 74.2313 45.5881 74.1561 45.5679C74.0796 45.5476 74.0068 45.556 73.9375 45.5928C73.8682 45.6309 73.8204 45.6856 73.7954 45.7606C73.7703 45.8344 73.7739 45.9081 73.8061 45.9795L77.4466 52.7236C77.5015 52.8283 77.5887 52.8806 77.7082 52.8794C77.7595 52.8818 77.8073 52.8723 77.8539 52.8497ZM72.7383 51.2279C72.8172 51.2065 72.8781 51.1613 72.9199 51.0899C72.9605 51.0185 72.9712 50.9436 72.9497 50.865L71.8473 46.7208C71.8402 46.6804 71.8246 46.6435 71.8007 46.609C71.7769 46.5745 71.7482 46.5471 71.7124 46.5257C71.6777 46.5031 71.6395 46.4888 71.5989 46.4828C71.5583 46.4769 71.5177 46.4793 71.4771 46.49C71.4376 46.4995 71.4018 46.5185 71.3684 46.5435C71.3361 46.5697 71.3098 46.6006 71.2907 46.6363C71.2716 46.6732 71.2597 46.7113 71.2561 46.7529C71.2525 46.7934 71.2573 46.8338 71.2704 46.8731L72.3729 51.0161C72.3932 51.0792 72.429 51.1304 72.4827 51.1696C72.5365 51.2089 72.595 51.2279 72.6619 51.2279C72.6858 51.2303 72.7097 51.2303 72.7336 51.2279H72.7383ZM65.5565 51.1054L66.4045 47.0373C66.4188 46.9588 66.4021 46.8862 66.3567 46.8196C66.3113 46.7529 66.2492 46.7125 66.1704 46.6958C66.0916 46.6792 66.0187 46.6934 65.9506 46.7363C65.8826 46.7791 65.8384 46.8386 65.8205 46.9171L64.9724 50.9852C64.9545 51.0649 64.9689 51.1399 65.0142 51.2077C65.0596 51.2767 65.1217 51.3196 65.203 51.335C65.2233 51.3374 65.2436 51.3374 65.2639 51.335C65.3343 51.3362 65.3964 51.316 65.4514 51.272C65.5063 51.2291 65.5422 51.1732 65.5565 51.1054ZM68.9497 50.9257C69.031 50.9233 69.1014 50.8924 69.1576 50.8329C69.2137 50.7746 69.2412 50.7032 69.24 50.6223L69.1612 47.1765C69.16 47.0968 69.1301 47.0278 69.0716 46.9719C69.0142 46.9159 68.945 46.8874 68.8649 46.8874C68.7825 46.8898 68.7133 46.9207 68.6559 46.9802C68.5998 47.0397 68.5723 47.1099 68.5735 47.192L68.6679 50.6342C68.6691 50.7151 68.7001 50.7829 68.7574 50.8401C68.816 50.896 68.8852 50.9233 68.9665 50.9233L68.9497 50.9257ZM61.7189 52.0918L64.1746 46.3888C64.2068 46.3139 64.208 46.2377 64.1782 46.1616C64.1483 46.0854 64.0946 46.0307 64.0193 45.9986C63.9441 45.9665 63.8676 45.9653 63.7912 45.9962C63.7148 46.0259 63.6598 46.0795 63.6276 46.1544L61.1719 51.8467C61.1564 51.8835 61.148 51.9204 61.148 51.9609C61.1468 52.0001 61.154 52.0382 61.1695 52.0751C61.1839 52.112 61.2054 52.1441 61.2328 52.1727C61.2603 52.2 61.2925 52.2226 61.3296 52.2369C61.3666 52.2536 61.4048 52.2631 61.4454 52.2631C61.5063 52.2655 61.5613 52.2512 61.6126 52.2203C61.6628 52.1881 61.701 52.1465 61.7261 52.0918H61.7189ZM55.5714 53.4303L61.7942 45.0812C61.8372 45.0158 61.8527 44.9432 61.8396 44.8658C61.8252 44.7873 61.787 44.7254 61.7225 44.6779C61.6592 44.6303 61.5876 44.6112 61.5087 44.6207C61.4299 44.6303 61.3654 44.666 61.314 44.7266L55.0913 53.0758C55.0674 53.1079 55.0507 53.1436 55.0399 53.1829C55.0304 53.2209 55.028 53.2614 55.034 53.3006C55.0399 53.3399 55.0531 53.378 55.0746 53.4113C55.0961 53.4458 55.1223 53.4756 55.1558 53.4982C55.2071 53.5374 55.2669 53.5565 55.3314 53.5577C55.4424 53.5636 55.5284 53.522 55.5917 53.4303H55.5714ZM40.6213 49.8822L58.174 41.0322C58.217 41.0215 58.2564 41.0012 58.2899 40.9739C58.3245 40.9453 58.3508 40.9108 58.3687 40.8704C58.3878 40.8311 58.3974 40.7883 58.3974 40.7442C58.3974 40.7002 58.3878 40.6586 58.3687 40.6181C58.3496 40.5777 58.3233 40.5443 58.2899 40.5158C58.2552 40.4872 58.217 40.4682 58.174 40.4563C58.131 40.4456 58.088 40.4444 58.0438 40.4515C58.0008 40.4599 57.9602 40.4765 57.9244 40.5027L40.3717 49.3527C40.3108 49.3837 40.2666 49.4313 40.2379 49.4931C40.2092 49.555 40.2033 49.6193 40.2188 49.6859C40.2355 49.7525 40.2702 49.8073 40.3239 49.8489C40.3777 49.8917 40.4386 49.9132 40.5067 49.9144C40.5532 49.9132 40.5962 49.9025 40.6368 49.8822H40.6213ZM48.4326 52.7616L59.7243 43.2715C59.7589 43.2477 59.7864 43.2179 59.8079 43.1822C59.8294 43.1465 59.8426 43.1073 59.8473 43.0668C59.8533 43.0252 59.8497 42.9847 59.8378 42.9442C59.8258 42.905 59.8067 42.8693 59.7804 42.8372C59.753 42.805 59.7207 42.7801 59.6837 42.761C59.6455 42.7432 59.6061 42.7336 59.5643 42.7313C59.5225 42.7289 59.483 42.736 59.4436 42.7515C59.4042 42.7658 59.3708 42.7884 59.3409 42.8169L48.0492 52.3071C48.0014 52.3476 47.9692 52.3976 47.9536 52.4582C47.9381 52.5177 47.9417 52.5772 47.9632 52.6355C47.9847 52.6938 48.0205 52.7414 48.0719 52.7771C48.1221 52.8128 48.1794 52.8307 48.2415 52.8307C48.3191 52.8354 48.3884 52.8116 48.4469 52.7616H48.4326ZM32.3717 45.7106L57.2925 38.9083C57.3714 38.8869 57.4323 38.8405 57.4729 38.7691C57.5135 38.6977 57.5231 38.6227 57.5016 38.543C57.4801 38.4645 57.4335 38.405 57.3618 38.3645C57.2902 38.3241 57.2149 38.3134 57.1361 38.336L32.2296 45.1383C32.1567 45.1562 32.0982 45.1966 32.0552 45.2597C32.0122 45.3216 31.9955 45.3906 32.0062 45.4655C32.0158 45.5405 32.0504 45.6024 32.1077 45.6511C32.1651 45.6999 32.232 45.7237 32.3084 45.7213C32.3347 45.7225 32.3609 45.719 32.3872 45.7106H32.3717ZM35.8342 36.9665L56.8243 36.2359C56.9068 36.2335 56.976 36.2014 57.0322 36.1419C57.0883 36.0812 57.1158 36.0098 57.1122 35.9277C57.111 35.8885 57.1026 35.8504 57.0859 35.8147C57.0704 35.779 57.0477 35.7481 57.019 35.7207C56.9892 35.6945 56.9569 35.6743 56.9199 35.66C56.8829 35.6469 56.8446 35.641 56.8052 35.6422L35.8151 36.3739C35.7375 36.3799 35.673 36.412 35.6204 36.4691C35.5679 36.525 35.5416 36.5929 35.5416 36.6702C35.5416 36.7475 35.5679 36.8142 35.6204 36.8713C35.673 36.9284 35.7375 36.9605 35.8151 36.9665H35.8342ZM30.3424 37.1592L32.6751 37.0771C32.7527 37.0676 32.8172 37.0343 32.8686 36.9748C32.9187 36.9165 32.9438 36.8475 32.9402 36.7702C32.9378 36.6928 32.9092 36.6262 32.8542 36.5703C32.7981 36.5155 32.7324 36.487 32.6536 36.4834L30.3221 36.5655C30.2827 36.5667 30.2445 36.575 30.2075 36.5905C30.1716 36.6071 30.1406 36.6297 30.1131 36.6583C30.0856 36.6869 30.0653 36.7202 30.051 36.7571C30.0379 36.7939 30.0319 36.832 30.0331 36.8713C30.0367 36.9522 30.0665 37.0188 30.1239 37.0748C30.1812 37.1307 30.2505 37.158 30.3305 37.1592H30.3424ZM58.1179 30.7852C58.1513 30.7103 58.1537 30.6341 58.125 30.558C58.0964 30.4806 58.045 30.4247 57.971 30.3902L32.5604 18.7726C32.4864 18.7393 32.4099 18.7357 32.3335 18.7642C32.2558 18.7916 32.1997 18.844 32.1651 18.9177C32.1304 18.9927 32.128 19.0677 32.1555 19.145C32.1842 19.2211 32.2355 19.2771 32.3108 19.3116L57.7213 30.928C57.7607 30.9471 57.8025 30.9566 57.8455 30.9554C57.9077 30.9601 57.965 30.9459 58.0175 30.9149C58.0701 30.884 58.1095 30.84 58.137 30.7852H58.1179ZM26.9575 16.5238C26.9743 16.4881 26.9838 16.45 26.985 16.4107C26.9862 16.3715 26.9802 16.3334 26.9671 16.2953C26.9528 16.2584 26.9325 16.2251 26.9062 16.1966C26.8787 16.168 26.8465 16.1454 26.8106 16.1287L23.3194 14.532C23.2454 14.5034 23.1713 14.5046 23.0985 14.5344C23.0256 14.5641 22.9719 14.6141 22.9396 14.6867C22.9062 14.758 22.9026 14.8306 22.9289 14.9056C22.954 14.9794 23.0005 15.0353 23.071 15.0722L26.5622 16.6689C26.6028 16.688 26.6446 16.6975 26.6876 16.6975C26.8142 16.6963 26.905 16.6392 26.9575 16.5238ZM57.3057 33.2554C57.3212 33.1756 57.3057 33.1019 57.2603 33.0329C57.2137 32.965 57.1504 32.9234 57.0704 32.9079L31.0853 27.7618C31.0041 27.7464 30.9301 27.7607 30.862 27.8059C30.7939 27.8511 30.7509 27.9141 30.7354 27.9951C30.7187 28.0748 30.7342 28.1485 30.7796 28.2176C30.825 28.2854 30.8883 28.327 30.9683 28.3437L56.9533 33.4909C56.9736 33.4921 56.9928 33.4921 57.0131 33.4909C57.0835 33.4909 57.1456 33.4683 57.2006 33.4243C57.2555 33.3803 57.2902 33.3244 57.3057 33.2554ZM26.9468 27.2443C26.9623 27.1645 26.948 27.0908 26.9026 27.023C26.8572 26.9539 26.7939 26.9123 26.7127 26.8968L23.421 26.2436C23.3421 26.2329 23.2717 26.2507 23.2072 26.2971C23.1427 26.3424 23.1033 26.4042 23.0877 26.4804C23.0722 26.5577 23.0853 26.6291 23.1272 26.6957C23.169 26.7624 23.2275 26.8064 23.3039 26.8266L26.5968 27.4775C26.616 27.4799 26.6351 27.4799 26.6542 27.4775C26.7246 27.4775 26.7867 27.4561 26.8417 27.4132C26.8966 27.3692 26.9313 27.3133 26.9468 27.2443ZM19.8868 25.845C19.9023 25.7641 19.888 25.6903 19.8426 25.6225C19.7972 25.5535 19.7339 25.5119 19.6527 25.4964L11.6216 23.9056C11.5822 23.8949 11.5416 23.8925 11.4998 23.8984C11.4592 23.9044 11.421 23.9175 11.3852 23.9401C11.3505 23.9615 11.3207 23.99 11.2968 24.0234C11.2729 24.0579 11.2574 24.0947 11.2502 24.1352C11.2418 24.1768 11.2418 24.2173 11.2514 24.2578C11.2597 24.2982 11.2765 24.3351 11.3015 24.3684C11.3254 24.4017 11.3553 24.4291 11.3923 24.4493C11.4281 24.4707 11.4664 24.4838 11.507 24.4886L19.5368 26.0794H19.5954C19.6658 26.0794 19.7279 26.0568 19.7829 26.0128C19.8378 25.9688 19.8713 25.9128 19.8868 25.845ZM59.2896 28.8315C59.3134 28.7994 59.3302 28.7637 59.3409 28.7244C59.3505 28.6852 59.3517 28.6459 59.3457 28.6066C59.3397 28.5662 59.3254 28.5293 59.3051 28.4948C59.2836 28.4615 59.2573 28.4317 59.2239 28.4091L33.3833 9.63577C33.3165 9.59531 33.2448 9.58223 33.1683 9.5965C33.0919 9.61078 33.0298 9.65005 32.9844 9.71311C32.9378 9.77617 32.9187 9.84637 32.9283 9.92371C32.9378 10.0011 32.9713 10.0653 33.031 10.1153L58.8715 28.8981C58.905 28.9231 58.9396 28.9398 58.979 28.9493C59.0184 28.96 59.0578 28.9612 59.0985 28.9553C59.1379 28.9493 59.1749 28.935 59.2095 28.9148C59.2442 28.8934 59.2728 28.866 59.2967 28.8327L59.2896 28.8315ZM61.1002 26.8599C61.1313 26.835 61.1552 26.804 61.1743 26.7683C61.1922 26.7338 61.203 26.6957 61.2054 26.6565C61.2089 26.616 61.2042 26.578 61.191 26.5399C61.1779 26.5018 61.1588 26.4685 61.1325 26.4375L47.4616 10.5674C47.4066 10.5103 47.3397 10.4794 47.2597 10.4758C47.1809 10.4722 47.1116 10.496 47.0507 10.5472C46.991 10.5984 46.9563 10.6638 46.948 10.7423C46.9396 10.8209 46.9599 10.8911 47.0077 10.9541L60.681 26.8314C60.7395 26.9004 60.8136 26.9349 60.9056 26.9349C60.9808 26.9361 61.0477 26.9123 61.105 26.8623L61.1002 26.8599ZM45.3642 8.58871C45.3953 8.56253 45.4192 8.53159 45.4371 8.49709C45.455 8.46139 45.4657 8.42332 45.4693 8.38405C45.4717 8.34479 45.4669 8.30552 45.455 8.26745C45.4419 8.23056 45.4227 8.19606 45.3965 8.16631L43.882 6.41248C43.8294 6.35061 43.7614 6.31611 43.6789 6.31016C43.5965 6.30421 43.5249 6.328 43.4628 6.38036C43.3995 6.4339 43.366 6.50172 43.3588 6.58382C43.3529 6.66592 43.3768 6.73731 43.4305 6.79918L44.9426 8.55658C45.0023 8.62559 45.0776 8.6601 45.1695 8.6601C45.2436 8.6601 45.3081 8.6363 45.3642 8.58871ZM65.7691 24.4779C65.8479 24.4565 65.9076 24.4112 65.9494 24.341C65.9913 24.2708 66.0008 24.1959 65.9805 24.1174L60.8291 3.38671C60.8088 3.30699 60.7634 3.2475 60.693 3.20586C60.6225 3.16421 60.5472 3.15469 60.4684 3.17492C60.3896 3.19634 60.3299 3.24155 60.2893 3.31175C60.2475 3.38195 60.2367 3.45572 60.257 3.53425L65.406 24.2649C65.4227 24.3315 65.4586 24.3851 65.5123 24.4279C65.5672 24.4695 65.6282 24.491 65.6974 24.491C65.7213 24.4898 65.7452 24.485 65.7691 24.4779ZM63.3158 25.3822C63.3517 25.3643 63.3815 25.3405 63.4078 25.3108C63.4329 25.2798 63.452 25.2465 63.4639 25.2084C63.4759 25.1716 63.4795 25.1335 63.4759 25.0942C63.4723 25.055 63.4615 25.0181 63.4436 24.9824L51.4006 1.74949C51.3624 1.67691 51.3039 1.62812 51.2251 1.60314C51.1474 1.57815 51.071 1.58529 50.9981 1.62336C50.9623 1.64002 50.9324 1.66501 50.9062 1.69475C50.8811 1.7245 50.862 1.75782 50.85 1.79589C50.8381 1.83278 50.8345 1.87204 50.8381 1.91131C50.8405 1.95057 50.8524 1.98746 50.8703 2.02196L62.9157 25.2548C62.9707 25.3619 63.059 25.4155 63.1809 25.4155C63.2251 25.4143 63.2681 25.4036 63.3075 25.3822H63.3158ZM68.0205 24.1542C68.0599 24.1531 68.0981 24.1447 68.134 24.1281C68.1698 24.1114 68.2009 24.0888 68.2271 24.0602C68.2546 24.0305 68.2749 23.9984 68.2881 23.9615C68.3012 23.9234 68.3072 23.8853 68.3048 23.8461L67.5308 5.95677C67.5225 5.87943 67.4878 5.81518 67.4281 5.76402C67.3684 5.71405 67.2991 5.69025 67.2215 5.69382C67.1426 5.69739 67.0758 5.72594 67.0208 5.78187C66.9659 5.83779 66.9372 5.90442 66.9348 5.98176L67.7112 23.8722C67.7147 23.9508 67.7446 24.0174 67.8019 24.0733C67.8605 24.1281 67.9285 24.1554 68.0074 24.1542H68.0205ZM71.0531 24.0876L73.8408 9.49299C73.8563 9.41208 73.8408 9.33831 73.7942 9.27049C73.7476 9.20267 73.6843 9.16102 73.6031 9.14555C73.5219 9.13128 73.4478 9.14674 73.3797 9.19315C73.3116 9.23836 73.271 9.30261 73.2555 9.38233L70.4678 23.9758C70.4523 24.0555 70.4678 24.1293 70.5144 24.1971C70.561 24.2649 70.6243 24.3065 70.7043 24.322H70.7604C70.8297 24.3232 70.893 24.3018 70.948 24.2589C71.0029 24.2149 71.0375 24.159 71.0531 24.0912V24.0876ZM75.8843 26.4102L82.6971 17.5756C82.7389 17.5102 82.7533 17.44 82.7389 17.3638C82.7258 17.2877 82.6888 17.2258 82.6266 17.1782C82.5657 17.1318 82.4953 17.1116 82.4188 17.1175C82.3412 17.1246 82.2755 17.1568 82.2241 17.2139L75.4114 26.0556C75.3863 26.0877 75.3684 26.1222 75.3576 26.1603C75.3481 26.1996 75.3445 26.2388 75.3505 26.2781C75.3552 26.3186 75.3684 26.3555 75.3887 26.39C75.4078 26.4245 75.4341 26.4542 75.4663 26.478C75.5213 26.5185 75.5822 26.5387 75.6491 26.5399C75.747 26.5399 75.8246 26.5018 75.8843 26.4257V26.4102ZM73.5923 24.9526L78.7556 13.504C78.7891 13.429 78.7903 13.3528 78.7616 13.2755C78.7318 13.1994 78.6792 13.1446 78.6052 13.1101C78.5681 13.0946 78.5311 13.0851 78.4917 13.0839C78.4523 13.0827 78.4141 13.0899 78.377 13.1042C78.34 13.1173 78.3078 13.1387 78.2791 13.166C78.2504 13.1934 78.2277 13.2243 78.2122 13.26L73.0477 24.7254C73.0142 24.8003 73.0118 24.8753 73.0417 24.9526C73.0704 25.0288 73.1229 25.0847 73.1982 25.118C73.2376 25.1347 73.2782 25.143 73.3212 25.143C73.449 25.143 73.5398 25.0847 73.5923 24.9681V24.9526ZM77.5696 28.0617L85.4872 21.1975C85.5421 21.1427 85.572 21.0761 85.5744 20.9976C85.5768 20.9191 85.5529 20.85 85.5003 20.7917C85.449 20.7323 85.3845 20.6989 85.3057 20.6906C85.228 20.6823 85.1576 20.7025 85.0942 20.7501L77.1779 27.6298C77.1301 27.6702 77.099 27.7202 77.0835 27.7797C77.0692 27.8404 77.0716 27.8987 77.0931 27.957C77.1158 28.0153 77.1516 28.0617 77.2029 28.0962C77.2543 28.1319 77.3104 28.1485 77.3725 28.1485C77.4478 28.1485 77.5135 28.1247 77.5696 28.0772V28.0617ZM79.071 30.3367L88.171 25.5594C88.2403 25.519 88.2868 25.4607 88.3083 25.3833C88.331 25.3072 88.3239 25.2322 88.2856 25.162C88.2474 25.0906 88.1913 25.0431 88.1148 25.0181C88.0372 24.9931 87.9632 24.999 87.8915 25.0335L78.7939 29.8108C78.733 29.8429 78.69 29.8905 78.6625 29.9523C78.635 30.0142 78.629 30.0785 78.6458 30.1439C78.6613 30.2094 78.6959 30.2641 78.7497 30.3057C78.8022 30.3486 78.8631 30.37 78.9312 30.3712C78.979 30.3759 79.0256 30.3688 79.071 30.3521V30.3367ZM80.2606 35.5732L92.0062 35.3614C92.0838 35.3554 92.1483 35.3233 92.2008 35.2662C92.2534 35.2091 92.2797 35.1424 92.2797 35.0651C92.2797 34.9878 92.2534 34.9199 92.2008 34.8628C92.1483 34.8069 92.0838 34.7748 92.0062 34.7676L80.263 34.9794C80.1853 34.9854 80.1196 35.0175 80.0671 35.0746C80.0145 35.1317 79.9883 35.1984 79.9883 35.2757C79.9883 35.353 80.0145 35.4209 80.0671 35.478C80.1196 35.5351 80.1853 35.566 80.263 35.5732H80.2606ZM79.9512 32.8675L90.4499 30.1867C90.5299 30.1665 90.5908 30.1213 90.6326 30.0511C90.6744 29.9809 90.6864 29.9059 90.6661 29.8262C90.6458 29.7477 90.6004 29.687 90.5287 29.6454C90.4582 29.6025 90.383 29.5918 90.3042 29.6121L79.8019 32.307C79.7303 32.3273 79.6741 32.3677 79.6323 32.4296C79.5917 32.4915 79.575 32.5581 79.5846 32.6319C79.5941 32.7056 79.6264 32.7675 79.6813 32.8163C79.7374 32.8663 79.8019 32.8913 79.8772 32.8925C79.9023 32.8925 79.9261 32.8889 79.9512 32.8817V32.8675Z" fill="#543787"/>
<path d="M70.9879 40.8032C70.9961 39.8359 71.4049 38.4386 70.4801 37.7571C69.8174 37.2704 68.8519 37.2775 68.0902 37.0401C67.1783 36.7555 66.1814 36.1578 65.9519 35.1444C65.6701 33.8971 66.8324 32.9604 66.7451 31.7391C66.6717 30.7151 65.7493 30.317 64.9352 29.9355C64.6626 29.8091 64.3866 29.6804 64.1199 29.541C62.246 30.9218 61.0254 33.16 61.0254 35.6901C61.0254 39.8855 64.3796 43.2872 68.5153 43.2872C69.6159 43.2872 70.6595 43.0451 71.5994 42.6128C71.2162 42.1084 70.9786 41.5214 70.9868 40.8021L70.9879 40.8032Z" fill="#A7B5FE"/>
<path d="M67.1046 29.268C67.8487 29.8507 68.2255 30.6967 68.1916 31.6433C68.1706 32.2681 67.9642 32.8029 67.7029 33.361C67.479 33.8384 67.1583 34.3404 67.5595 34.8061C68.1088 35.4461 69.1142 35.5221 69.8793 35.6977C70.6853 35.8837 71.4679 36.1844 71.9682 36.8818C72.6354 37.812 72.5339 38.9411 72.4569 40.0211C72.4114 40.6471 72.4861 41.0684 72.9036 41.5235C74.8829 40.1686 76.1834 37.8881 76.1834 35.3022C76.1834 31.146 72.8255 27.7773 68.6827 27.7773C67.5875 27.7773 66.5471 28.0137 65.6094 28.4373C66.1307 28.6736 66.6497 28.91 67.1069 29.2669L67.1046 29.268Z" fill="#543787"/>
<circle cx="47.6338" cy="47.5147" r="45.8206" stroke="#543787" stroke-width="2.1148"/>
</svg>
